# xmcd
#
# Track frame offsets: 
#        180
#        22944
#        50478
#        66548
#        90311
#        111900
#        138288
#        156242
#        183656
#        205040
#        228142
#        242659
#        265095
#        280131
#
# Disc length: 4130 seconds
#
# Revision: 0
# Processed by: cddbd v1.5.2PL0 Copyright (c) Steve Scherf et al.
# Submitted via: ExactAudioCopy v0.99pb4
#
DISCID=bc10200e
DTITLE=Joyful Gospel - Joy
DYEAR=1997
DGENRE=Gospel
TTITLE0=Stand up
TTITLE1=Holy, holy
TTITLE2=Be strong...
TTITLE3=Whatcha loking for
TTITLE4=Loving words
TTITLE5=Radiate
TTITLE6=God has a plan
TTITLE7=Amazing Grace
TTITLE8=The news
TTITLE9=The Lord is my light
TTITLE10=What do you call him
TTITLE11=How will it be
TTITLE12=Joy
TTITLE13=Till we meet again
EXTD=
EXTT0=
EXTT1=
EXTT2=
EXTT3=
EXTT4=
EXTT5=
EXTT6=
EXTT7=
EXTT8=
EXTT9=
EXTT10=
EXTT11=
EXTT12=
EXTT13=
PLAYORDER=
